<?xml version="1.0" encoding="utf-8"?>
<!-- Generator: Adobe Illustrator 26.0.1, SVG Export Plug-In . SVG Version: 6.00 Build 0)  -->
<svg version="1.1" id="Layer_1" xmlns="http://www.w3.org/2000/svg" xmlns:xlink="http://www.w3.org/1999/xlink" x="0px" y="0px"
	 viewBox="0 0 658.4 199.9" enable-background="new 0 0 658.4 199.9" xml:space="preserve">
<path fill="#C9A764" d="M98.1,53.8c0-28.8,21.8-43.1,42.4-43.1s42.4,14.4,42.4,43.1v8.9h-25.3v-8.9c0-12.1-7.9-17.9-17.1-17.9
	s-17.1,5.7-17.1,17.9V147c0,12.1,7.9,17.9,17.1,17.9s17.1-5.7,17.1-17.9v-33.2h-20.1V91.5h45.4V147c0,28.8-21.8,43.1-42.4,43.1
	S98.1,175.7,98.1,147V53.8z"/>
<g>
	<g>
		<g>
			<path fill="#958B78" d="M55.3,193.3c-4.3-4.4-6.4-10.2-6.4-17.5v-41c0-6.7-1.1-11.6-3.2-14.7c-2.1-3.1-5.1-6.1-8.9-9
				c-2.3-1.6-4-3.1-5.1-4.3c-1.1-1.2-1.6-2.9-1.6-4.9c0-1.8,0.5-3.2,1.5-4.4c1-1.2,2.6-2.5,4.8-4c3.8-2.7,6.8-5.7,9.1-9.1
				c2.2-3.3,3.4-8.4,3.4-15.2V24.1c0-7.1,2.1-12.9,6.4-17.4S65.9,0,74.2,0h10.2C87,0,89,0.5,90.3,1.6c1.4,1.1,2,2.7,2,4.7
				c0,4.2-2.7,6.3-8,6.3h-9.6c-3.3,0-5.9,1-7.8,3S64,20.2,64,23.5v45.7c0,7.8-1.4,14.2-4.2,19.4c-2.8,5.2-7.2,9.6-13.2,13.3
				c6.1,3.9,10.5,8.5,13.3,13.6c2.7,5.1,4.1,11.5,4.1,19.3v41.7c0,3.3,1,5.9,2.9,7.9c1.9,2,4.5,3,7.8,3h9.6c5.3,0,8,2.1,8,6.3
				c0,2-0.7,3.6-2,4.7c-1.4,1.1-3.3,1.6-5.9,1.6H74.2C65.9,199.9,59.6,197.7,55.3,193.3z"/>
		</g>
	</g>
	<g>
		<g>
			<path fill="#958B78" d="M25.2,193.3c-4.3-4.4-6.4-10.2-6.4-17.5v-41c0-6.7-1.1-11.6-3.2-14.7s-5.1-6.1-8.9-9
				c-2.3-1.6-4-3.1-5.1-4.3c-1.1-1.2-1.6-2.9-1.6-4.9c0-1.8,0.5-3.2,1.5-4.4c1-1.2,2.6-2.5,4.8-4c3.8-2.7,6.8-5.7,9.1-9.1
				c2.2-3.3,3.4-8.4,3.4-15.2V24.1c0-7.1,2.1-12.9,6.4-17.4S35.8,0,44.1,0h10.2c2.6,0,4.6,0.5,5.9,1.6c1.4,1.1,2,2.7,2,4.7
				c0,4.2-2.7,6.3-8,6.3h-9.6c-3.3,0-5.9,1-7.8,3c-1.9,2-2.9,4.6-2.9,7.9v45.7c0,7.8-1.4,14.2-4.2,19.4c-2.8,5.2-7.2,9.6-13.2,13.3
				c6.1,3.9,10.5,8.5,13.3,13.6c2.7,5.1,4.1,11.5,4.1,19.3v41.7c0,3.3,1,5.9,2.9,7.9s4.5,3,7.8,3h9.6c5.3,0,8,2.1,8,6.3
				c0,2-0.7,3.6-2,4.7c-1.4,1.1-3.3,1.6-5.9,1.6H44.1C35.8,199.9,29.5,197.7,25.2,193.3z"/>
		</g>
	</g>
	<g>
		<g>
			<path fill="#958B78" d="M205.4,199.9h-10.2c-2.6,0-4.6-0.5-5.9-1.6c-1.4-1.1-2-2.7-2-4.7c0-4.2,2.7-6.3,8-6.3h9.6
				c3.3,0,5.9-1,7.8-3c1.9-2,2.9-4.6,2.9-7.9v-41.7c0-7.8,1.4-14.2,4.1-19.3c2.7-5.1,7.1-9.6,13.3-13.6c-6-3.7-10.4-8.1-13.2-13.3
				c-2.8-5.2-4.2-11.6-4.2-19.4V23.5c0-3.3-1-5.9-2.9-7.9s-4.5-3-7.8-3h-9.6c-5.3,0-8-2.1-8-6.3c0-2,0.7-3.6,2-4.7
				c1.4-1.1,3.3-1.6,5.9-1.6h10.2c8.3,0,14.6,2.2,18.9,6.7c4.3,4.5,6.4,10.3,6.4,17.4v45.1c0,6.8,1.1,11.9,3.4,15.2
				c2.2,3.3,5.3,6.4,9.1,9.1c2.2,1.5,3.8,2.8,4.8,4s1.5,2.6,1.5,4.4c0,2-0.5,3.7-1.6,4.9c-1.1,1.2-2.8,2.7-5.1,4.3
				c-3.8,2.9-6.8,5.9-8.9,9c-2.1,3.1-3.2,8-3.2,14.7v41c0,7.2-2.1,13-6.4,17.5C220,197.7,213.7,199.9,205.4,199.9z"/>
		</g>
	</g>
	<g>
		<g>
			<path fill="#958B78" d="M235.5,199.9h-10.2c-2.6,0-4.6-0.5-5.9-1.6c-1.4-1.1-2-2.7-2-4.7c0-4.2,2.7-6.3,8-6.3h9.6
				c3.3,0,5.9-1,7.8-3c1.9-2,2.9-4.6,2.9-7.9v-41.7c0-7.8,1.4-14.2,4.1-19.3c2.7-5.1,7.1-9.6,13.3-13.6c-6-3.7-10.4-8.1-13.2-13.3
				c-2.8-5.2-4.2-11.6-4.2-19.4V23.5c0-3.3-1-5.9-2.9-7.9s-4.5-3-7.8-3h-9.6c-5.3,0-8-2.1-8-6.3c0-2,0.7-3.6,2-4.7
				c1.4-1.1,3.3-1.6,5.9-1.6h10.2c8.3,0,14.6,2.2,18.9,6.7s6.4,10.3,6.4,17.4v45.1c0,6.8,1.1,11.9,3.4,15.2c2.2,3.3,5.3,6.4,9.1,9.1
				c2.2,1.5,3.8,2.8,4.8,4s1.5,2.6,1.5,4.4c0,2-0.5,3.7-1.6,4.9c-1.1,1.2-2.8,2.7-5.1,4.3c-3.8,2.9-6.8,5.9-8.9,9s-3.2,8-3.2,14.7
				v41c0,7.2-2.1,13-6.4,17.5C250.1,197.7,243.9,199.9,235.5,199.9z"/>
		</g>
	</g>
</g>
<g>
	<g>
		<path fill="#958B78" d="M349.8,167.9c-0.4,3.2-1.3,6.1-2.7,8.7c-1.4,2.6-3.3,4.8-5.5,6.7s-4.8,3.3-7.6,4.3c-2.9,1-5.9,1.6-9.3,1.6
			c-3.7,0-7.1-0.6-10.2-1.8s-5.7-3.1-7.9-5.6c-2.2-2.5-3.9-5.6-5.2-9.2c-1.2-3.7-1.8-7.9-1.8-12.8c0-4.9,0.6-9.1,1.8-12.7
			c1.2-3.6,2.9-6.5,5.2-8.7c2.2-2.3,4.9-3.9,8.1-5.1c3.1-1.1,6.6-1.7,10.5-1.7c3.6,0,6.8,0.5,9.7,1.4c2.9,1,5.5,2.4,7.7,4.2
			c2.2,1.9,3.9,4.1,5.2,6.7c1.3,2.6,2,5.5,2.2,8.7h-14.5c-0.4-2.8-1.5-5-3.4-6.6s-4.2-2.4-6.9-2.4c-1.6,0-3,0.3-4.3,0.8
			s-2.5,1.4-3.5,2.6c-1,1.2-1.8,2.9-2.4,4.9s-0.9,4.5-0.9,7.5c0,6,1.1,10.4,3.2,13.3c2.1,2.9,4.6,4.3,7.4,4.3s5.2-0.8,7.2-2.3
			c2-1.6,3.1-3.8,3.4-6.8L349.8,167.9L349.8,167.9z"/>
		<path fill="#958B78" d="M353.3,187.7v-54.6h13.5v6.6c1.2-1.8,2.4-3.3,3.7-4.3c1.3-1,2.6-1.8,4-2.4c1.4-0.6,2.8-0.9,4.2-1.1
			c1.4-0.1,2.8-0.2,4.3-0.2h1.9v14.8c-1.3-0.2-2.7-0.3-4-0.3c-8.8,0-13.2,4.4-13.2,13.2v28.4h-14.4V187.7z"/>
		<path fill="#958B78" d="M398.8,164.1c0.2,4.1,1.4,7.4,3.6,9.9c2.2,2.4,5.1,3.7,8.6,3.7c2.4,0,4.5-0.5,6.3-1.6s3-2.6,3.5-4.5h14.9
			c-1.7,5.6-4.7,10-8.9,13c-4.2,3-9.3,4.6-15.1,4.6c-18.2,0-27.3-9.9-27.3-29.8c0-4.2,0.6-8,1.8-11.4c1.2-3.4,2.9-6.3,5.2-8.8
			c2.3-2.4,5-4.3,8.3-5.6s7-1.9,11.2-1.9c8.4,0,14.8,2.7,19.2,8.1c4.3,5.4,6.5,13.5,6.5,24.4L398.8,164.1L398.8,164.1z M421.5,155
			c-0.1-2-0.4-3.8-1.1-5.3c-0.6-1.5-1.5-2.8-2.5-3.8s-2.2-1.7-3.6-2.2c-1.3-0.5-2.7-0.7-4.1-0.7c-2.9,0-5.4,1.1-7.5,3.2
			c-2.1,2.1-3.3,5.1-3.6,8.8H421.5z"/>
		<path fill="#958B78" d="M473.6,187.7c-0.4-1.4-0.7-3-0.9-4.9c-1.7,1.9-4,3.5-6.8,4.6s-6.1,1.7-9.8,1.7c-6.3,0-10.9-1.4-13.8-4.2
			s-4.4-6.4-4.4-10.8c0-3.9,0.6-7.1,1.9-9.4c1.3-2.3,3-4.2,5.2-5.5s4.9-2.3,7.9-2.9c3.1-0.6,6.4-1.2,10.1-1.7
			c3.6-0.5,6.1-1.2,7.3-2.1c1.3-0.9,1.9-2.2,1.9-4.2c0-1.8-0.8-3.2-2.5-4.2s-3.9-1.5-6.7-1.5c-3.3,0-5.7,0.7-7.2,2.2
			c-1.4,1.5-2.4,3.4-2.7,5.9h-13.4c0.1-2.8,0.5-5.4,1.4-7.8c0.9-2.4,2.2-4.4,4.1-6.1c1.9-1.7,4.3-3,7.4-3.9c3-0.9,6.7-1.4,11.1-1.4
			c4.3,0,7.9,0.5,10.9,1.4c3,1,5.4,2.4,7.2,4.2c1.8,1.8,3.1,4.1,3.9,6.8s1.2,5.8,1.2,9.2v34.5L473.6,187.7L473.6,187.7z
			 M472.6,160.9c-0.7,0.7-1.8,1.3-3.2,1.8c-1.4,0.4-3.4,0.9-6.1,1.4c-4.1,0.8-7,1.9-8.6,3.1c-1.6,1.3-2.3,3.1-2.3,5.4
			c0,4.1,2.3,6.1,7,6.1c1.8,0,3.6-0.3,5.2-0.9c1.6-0.6,3-1.5,4.1-2.6s2.1-2.3,2.8-3.8c0.7-1.4,1.1-3,1.1-4.6V160.9z"/>
		<path fill="#958B78" d="M521.8,151.7h13.4v15.5c0,2.9-0.4,5.6-1.3,8.3c-0.9,2.6-2.2,5-4,7s-4.1,3.6-6.9,4.8
			c-2.8,1.2-6.1,1.8-9.9,1.8c-4,0-7.4-0.6-10.2-1.8c-2.8-1.2-5.1-2.8-6.9-4.8s-3.1-4.3-3.9-7s-1.2-5.5-1.2-8.4v-48.9h14.2V133h30.2
			v10.2h-30.2v22.4c0,3.5,0.6,6.2,1.9,8.1c1.3,1.9,3.4,2.8,6.4,2.8c2.9,0,5-0.9,6.4-2.8c1.4-1.8,2.1-4.5,2.1-7.9L521.8,151.7
			L521.8,151.7z"/>
		<path fill="#958B78" d="M575.1,187.7l-19.5-54.6h16.1l11.4,36.1l11.5-36.1h15.2l-19.7,54.6L575.1,187.7L575.1,187.7z"/>
		<path fill="#958B78" d="M620,164.1c0.2,4.1,1.4,7.4,3.6,9.9c2.2,2.4,5.1,3.7,8.6,3.7c2.4,0,4.5-0.5,6.3-1.6s3-2.6,3.5-4.5h14.9
			c-1.7,5.6-4.7,10-8.9,13s-9.3,4.6-15.1,4.6c-18.2,0-27.3-9.9-27.3-29.8c0-4.2,0.6-8,1.8-11.4s2.9-6.3,5.2-8.8
			c2.3-2.4,5-4.3,8.3-5.6s7-1.9,11.2-1.9c8.4,0,14.8,2.7,19.2,8.1c4.3,5.4,6.5,13.5,6.5,24.4L620,164.1L620,164.1z M642.8,155
			c-0.1-2-0.4-3.8-1.1-5.3c-0.6-1.5-1.5-2.8-2.5-3.8s-2.2-1.7-3.6-2.2c-1.3-0.5-2.7-0.7-4.1-0.7c-2.9,0-5.4,1.1-7.5,3.2
			c-2.1,2.1-3.3,5.1-3.6,8.8H642.8z"/>
		<g>
			<rect x="539.9" y="133.1" fill="#958B78" width="14.4" height="10.2"/>
			<rect x="539.9" y="151.9" fill="#958B78" width="14.4" height="35.8"/>
		</g>
	</g>
	<g>
		<path fill="#958B78" d="M300.7,38.3c0-16.3,12.4-24.4,24-24.4c11.7,0,24,8.1,24,24.4v5.1h-14.3v-5.1c0-6.9-4.5-10.1-9.7-10.1
			s-9.7,3.2-9.7,10.1v52.8c0,6.9,4.5,10.1,9.7,10.1s9.7-3.2,9.7-10.1V72.3H323V59.7h25.7v31.5c0,16.3-12.4,24.4-24,24.4
			c-11.7,0-24-8.1-24-24.4V38.3z"/>
		<path fill="#958B78" d="M356.2,14.7h23c17,0,25.3,10,25.3,29.4c0,11.5-3.2,19.9-12.4,25l15.4,45.6h-15.2L379.1,72h-8.6v42.7h-14.3
			V14.7z M370.5,59.4h8.1c10,0,11.5-5.6,11.5-15.6c0-10.1-1.7-15.6-12.2-15.6h-7.4V59.4z"/>
		<path fill="#958B78" d="M426.3,14.7h11.9l22.3,100h-14.3L442,93.3h-19.5l-4.2,21.5H404L426.3,14.7z M432.3,43.5H432l-7,36.2h14.3
			L432.3,43.5z"/>
		<path fill="#958B78" d="M482.2,114.7h-12.6l-20.4-100h15.2l11.4,69.8h0.3l11.5-69.8h15.2L482.2,114.7z"/>
		<g>
			<polygon fill="#958B78" points="619.3,100.4 599.2,100.4 599.2,14.7 584.9,14.7 584.9,114.7 619.3,114.7 			"/>
		</g>
		<g>
			<polygon fill="#958B78" points="580,100.4 560,100.4 560,14.7 545.6,14.7 545.6,114.7 580,114.7 			"/>
		</g>
		<g>
			<polygon fill="#958B78" points="540.6,100.4 520.8,100.4 520.8,71.1 538.8,71.1 538.8,57.6 520.8,57.6 520.8,28.2 540.6,28.2 
				540.6,14.7 506.5,14.7 506.5,114.7 540.6,114.7 			"/>
		</g>
		<g>
			<polygon fill="#958B78" points="658.4,100.4 638.6,100.4 638.6,71.1 656.6,71.1 656.6,57.6 638.6,57.6 638.6,28.2 658.4,28.2 
				658.4,14.7 624.3,14.7 624.3,114.7 658.4,114.7 			"/>
		</g>
	</g>
</g>
</svg>
